<?xml version="1.0" encoding="utf-8"?>
<!-- Generator: Adobe Illustrator 22.1.0, SVG Export Plug-In . SVG Version: 6.00 Build 0)  -->
<svg version="1.1" xmlns="http://www.w3.org/2000/svg" xmlns:xlink="http://www.w3.org/1999/xlink" x="0px" y="0px"
	 viewBox="0 0 100 79.8" style="enable-background:new 0 0 100 79.8;" xml:space="preserve">
<g id="Layer_2">
</g>
<g id="Layer_1">
	<g>
		<path d="M90.5,0h-81c-3.9,0-7,3.2-7,7v65.8c0,3.9,3.2,7,7,7h80.9c3.9,0,7-3.2,7-7V7C97.5,3.1,94.3,0,90.5,0z M32.5,7.2
			c1.7,0,3,1.4,3,3c0,1.7-1.4,3-3,3c-1.7,0-3-1.4-3-3C29.5,8.5,30.8,7.2,32.5,7.2z M23.3,7.2c1.7,0,3,1.4,3,3c0,1.7-1.4,3-3,3
			c-1.7,0-3-1.4-3-3C20.3,8.5,21.7,7.2,23.3,7.2z M14.1,7.2c1.7,0,3,1.4,3,3c0,1.7-1.4,3-3,3c-1.7,0-3-1.4-3-3
			C11.1,8.5,12.5,7.2,14.1,7.2z M91,72.8c0,0.3-0.2,0.5-0.5,0.5h-81c-0.3,0-0.5-0.2-0.5-0.5V20.5h82V72.8z"/>
		<path d="M38.3,64c0.4,0.4,1.1,0.4,1.5,0l4.7-4.7c0.4-0.4,0.4-1.1,0-1.5L33.7,46.9l10.8-10.8c0.4-0.4,0.4-1.1,0-1.5l-4.7-4.7
			c-0.4-0.4-1.1-0.4-1.5,0L22.1,46.2c-0.4,0.4-0.4,1.1,0,1.5L38.3,64z"/>
		<path d="M55.5,59.3l4.7,4.7c0.4,0.4,1.1,0.4,1.5,0L78,47.7c0.4-0.4,0.4-1.1,0-1.5L61.7,29.9c-0.4-0.4-1.1-0.4-1.5,0l-4.7,4.7
			c-0.4,0.4-0.4,1.1,0,1.5l10.8,10.8L55.5,57.8C55.1,58.2,55.1,58.9,55.5,59.3z"/>
	</g>
</g>
</svg>
