<?xml version="1.0" encoding="utf-8"?>
<!-- Generator: Adobe Illustrator 22.1.0, SVG Export Plug-In . SVG Version: 6.00 Build 0)  -->
<svg version="1.1" id="Layer_1" xmlns="http://www.w3.org/2000/svg" xmlns:xlink="http://www.w3.org/1999/xlink" x="0px" y="0px"
	 viewBox="0 0 798.4 918.7" style="enable-background:new 0 0 798.4 918.7;" xml:space="preserve">
<path d="M785.3,227L405.9,8c-4.6-2.7-10.4-2.7-15,0L11.5,227c-4.6,2.7-7.5,7.6-7.5,13v438c0,5.4,2.9,10.3,7.5,13l379.4,219
	c2.3,1.3,4.9,2,7.5,2s5.2-0.7,7.5-2l379.4-219c4.6-2.7,7.5-7.6,7.5-13V239.9C792.8,234.6,789.9,229.7,785.3,227z M762.8,651.9
	l-153.7-89.7L762.8,296V651.9z M398.4,270.2l162.4,281.3H236L398.4,270.2z M208.8,538.6L45,255h327.6L208.8,538.6z M563.3,581.5
	L398.4,867.1L233.5,581.5H563.3z M424.2,255h327.6L588,538.6L424.2,255z M413.4,225V46.9L721.8,225H413.4z M383.4,225H75L383.4,46.9
	V225z M187.7,562.2L34,651.9v-356L187.7,562.2z M202.7,588.1l154.7,268L48.9,678L202.7,588.1z M594.1,588.1L747.9,678L439.4,856.1
	L594.1,588.1z"/>
</svg>
