<?xml version="1.0" encoding="utf-8"?>
<!-- Generator: Adobe Illustrator 22.1.0, SVG Export Plug-In . SVG Version: 6.00 Build 0)  -->
<svg version="1.1" id="Layer_1" xmlns="http://www.w3.org/2000/svg" xmlns:xlink="http://www.w3.org/1999/xlink" x="0px" y="0px"
	 viewBox="0 0 1024 1028" style="enable-background:new 0 0 1024 1028;" xml:space="preserve">
<style type="text/css">
	.st0{display:none;}
	.st1{display:inline;}
	.st2{display:none;fill:none;stroke:#000000;stroke-width:60;stroke-miterlimit:10;}
	.st3{display:none;fill:none;stroke:#000000;stroke-width:50;stroke-miterlimit:10;}
	.st4{display:none;fill:none;stroke:#000000;stroke-width:40;stroke-miterlimit:10;}
</style>
<path class="st0" d="M900.6,835H1012V191H900.6c-11.6,0-20.6-7-20.6-16.6v-67.3c0-9.6,9-18.1,20.6-18.1h100.5
	c-19.5-44-63.5-74-114.5-74H141.4c-51.1,0-95,30-114.5,74h100.5c11.6,0,20.6,8.5,20.6,18.1v67.3c0,9.6-9.1,16.6-20.6,16.6H16v644
	h111.4c11.6,0,20.6,7.7,20.6,17.3v67.3c0,9.6-9.1,17.3-20.6,17.3H26.8c19.5,44,63.5,74,114.5,74h745.3c51.1,0,95-30,114.5-74H900.6
	c-11.6,0-20.6-7.7-20.6-17.3v-67.3C880,842.7,889,835,900.6,835z M449,173.6c0,9.6-9.4,17.4-21,17.4H300c-11.6,0-21-7.8-21-17.4
	v-67.2c0-9.6,9.4-17.4,21-17.4H428c11.6,0,21,7.8,21,17.4V173.6z M666.1,492.5c30.5,22.2,2.7,47.2,2.7,47.2L402.3,692.4
	c-52.7,27.8-54.3-23.6-54.3-23.6V360.7c1-54.1,51.5-26.4,51.5-26.4L666.1,492.5z M449,919.6c0,9.6-9.4,17.4-21,17.4H300
	c-11.6,0-21-7.8-21-17.4v-67.2c0-9.6,9.4-17.4,21-17.4H428c11.6,0,21,7.8,21,17.4V919.6z M750,919.6c0,9.6-9.4,17.4-21,17.4H601
	c-11.6,0-21-7.8-21-17.4v-67.2c0-9.6,9.4-17.4,21-17.4H729c11.6,0,21,7.8,21,17.4V919.6z M750,173.6c0,9.6-9.4,17.4-21,17.4H601
	c-11.6,0-21-7.8-21-17.4v-67.2c0-9.6,9.4-17.4,21-17.4H729c11.6,0,21,7.8,21,17.4V173.6z"/>
<path class="st0" d="M1016,127.6c0-44.5-36.1-80.6-80.6-80.6H92.6C48.1,47,12,83.1,12,127.6v770.9c0,44.5,36.1,80.6,80.6,80.6h842.9
	c44.5,0,80.6-36.1,80.6-80.6V127.6z M930.7,100.4c18.2,0,33.1,14.8,33.1,33.1c0,18.2-14.8,33.1-33.1,33.1
	c-18.3,0-33.1-14.8-33.1-33.1C897.7,115.2,912.5,100.4,930.7,100.4z M819.2,100.4c18.3,0,33.1,14.8,33.1,33.1
	c0,18.2-14.8,33.1-33.1,33.1c-18.2,0-33-14.8-33-33.1C786.1,115.2,800.9,100.4,819.2,100.4z M707.6,100.4c18.2,0,33,14.8,33,33.1
	c0,18.2-14.8,33.1-33,33.1c-18.3,0-33.1-14.8-33.1-33.1C674.5,115.2,689.3,100.4,707.6,100.4z M964,891.9
	c0,18.8-15.3,34.1-34.1,34.1H99.1C80.3,926,65,910.7,65,891.9V253.1c0-18.8,15.3-34.1,34.1-34.1h830.8c18.8,0,34.1,15.3,34.1,34.1
	L964,891.9L964,891.9z"/>
<path class="st0" d="M674.3,636.3L399,794c-54.5,28.7-56-24.4-56-24.4V451.4c1-55.9,53.1-27.2,53.1-27.2l275.2,163.4
	C702.9,610.5,674.3,636.3,674.3,636.3z"/>
<path class="st0" d="M901.3,835H1012V191H901.3c-11.6,0-21.3-7-21.3-16.6v-67.3c0-9.6,9.7-18.1,21.3-18.1h100.5
	c-19.6-44-63.5-74-114.5-74H142.1C91,15,47.1,45,27.5,89h100.5c11.6,0,19.9,8.5,19.9,18.1v67.3c0,9.6-8.4,16.6-19.9,16.6H16v644
	h112.1c11.6,0,19.9,7.7,19.9,17.3v67.3c0,9.6-8.4,17.3-19.9,17.3H27.5c19.6,44,63.5,74,114.5,74h745.3c51.1,0,95-30,114.5-74H901.3
	c-11.6,0-21.3-7.7-21.3-17.3v-67.3C880,842.7,889.7,835,901.3,835z M750,173.6c0,9.6-9.4,17.4-21,17.4H600.9c-11.6,0-21-7.8-21-17.4
	v-67.2c0-9.6,9.4-17.4,21-17.4H729c11.6,0,21,7.8,21,17.4L750,173.6L750,173.6z M449,173.6c0,9.6-9.4,17.4-21,17.4H299.9
	c-11.6,0-21-7.8-21-17.4v-67.2c0-9.6,9.4-17.4,21-17.4H428c11.6,0,21,7.8,21,17.4V173.6z M673,710c0,18.2-14.8,33-33,33H110
	c-18.2,0-33-14.8-33-33V316c0-18.2,14.8-33,33-33h530c18.2,0,33,14.8,33,33V710z M449,919.6c0,9.6-9.4,17.4-21,17.4H299.9
	c-11.6,0-21-7.8-21-17.4v-67.2c0-9.6,9.4-17.4,21-17.4H428c11.6,0,21,7.8,21,17.4V919.6z M750,919.6c0,9.6-9.4,17.4-21,17.4H600.9
	c-11.6,0-21-7.8-21-17.4v-67.2c0-9.6,9.4-17.4,21-17.4H729c11.6,0,21,7.8,21,17.4L750,919.6L750,919.6z M952,710
	c0,18.2-14.8,33-33,33H765c-18.2,0-33-14.8-33-33V316c0-18.2,14.8-33,33-33h154c18.2,0,33,14.8,33,33V710z"/>
<path class="st0" d="M1009,135.3C1009,71.1,956.9,19,892.7,19H136.3C72.1,19,20,71.1,20,135.3v756.4c0,64.2,52.1,116.3,116.3,116.3
	h756.4c64.2,0,116.3-52.1,116.3-116.3V135.3z M936,878.8c0,29.4-23.8,53.2-53.2,53.2H147.2c-29.4,0-53.2-23.8-53.2-53.2V149.2
	c0-29.4,23.8-53.2,53.2-53.2h735.5c29.4,0,53.2,23.8,53.2,53.2V878.8z"/>
<path class="st0" d="M694.6,543.9L384,721.9c-61.5,32.4-63-27.5-63-27.5V335c1-63.1,59.7-30.8,59.7-30.8l310.6,184.5
	C727,514.7,694.6,543.9,694.6,543.9z"/>
<path class="st0" d="M773.3,548.3L412.4,755.1c-71.4,37.6-73.4-32-73.4-32V305.8c2-73.3,69.6-35.7,69.6-35.7l360.9,214.3
	C810.8,514.5,773.3,548.3,773.3,548.3z"/>
<path class="st0" d="M514.4,13.7c-275.9,0-499.6,223.7-499.6,499.6c0,275.9,223.7,499.6,499.6,499.6s499.6-223.7,499.6-499.6
	C1014.1,237.4,790.4,13.7,514.4,13.7z M514.4,946.9C275,946.9,80.9,752.8,80.9,513.4S275,79.8,514.4,79.8
	C753.9,79.8,948,273.9,948,513.4C948,752.8,753.9,946.9,514.4,946.9z"/>
<path class="st0" d="M514.4,13.7c-275.9,0-499.6,223.7-499.6,499.6c0,275.9,223.7,499.6,499.6,499.6s499.6-223.7,499.6-499.6
	C1014.1,237.4,790.4,13.7,514.4,13.7z M514.4,946.9C275,946.9,80.9,752.8,80.9,513.4S275,79.8,514.4,79.8
	C753.9,79.8,948,273.9,948,513.4C948,752.8,753.9,946.9,514.4,946.9z"/>
<path class="st0" d="M433,690c0,29.8-24.2,54-54,54l0,0c-29.8,0-54-24.2-54-54V336c0-29.8,24.2-54,54-54l0,0c29.8,0,54,24.2,54,54
	V690z"/>
<path class="st0" d="M704,690c0,29.8-24.2,54-54,54l0,0c-29.8,0-54-24.2-54-54V336c0-29.8,24.2-54,54-54l0,0c29.8,0,54,24.2,54,54
	V690z"/>
<path class="st0" d="M514.4,16.8c-274.3,0-496.6,222.3-496.6,496.6c0,274.3,222.3,496.6,496.6,496.6
	c274.3,0,496.6-222.3,496.6-496.6C1011,239.1,788.7,16.8,514.4,16.8z M766,219.7c73.9,0,133.9,59.9,133.9,133.9
	S839.9,487.5,766,487.5c-73.9,0-133.9-59.9-133.9-133.9C632.1,279.7,692.1,219.7,766,219.7z M98.8,515.5
	c0-73.9,59.9-133.9,133.9-133.9c73.9,0,133.9,59.9,133.9,133.9c0,73.9-59.9,133.9-133.9,133.9C158.8,649.4,98.8,589.5,98.8,515.5z
	 M424.8,932.2c-73.9,0-133.9-59.9-133.9-133.9c0-73.9,59.9-133.9,133.9-133.9c73.9,0,133.9,59.9,133.9,133.9
	C558.7,872.3,498.8,932.2,424.8,932.2z M514.4,558.7c-25,0-45.3-20.3-45.3-45.3c0-25,20.3-45.3,45.3-45.3c25,0,45.3,20.3,45.3,45.3
	C559.8,538.4,539.5,558.7,514.4,558.7z M435.6,368.7c-73.9,0-133.9-59.9-133.9-133.9S361.7,101,435.6,101
	c73.9,0,133.9,59.9,133.9,133.9S509.6,368.7,435.6,368.7z M761.7,824.3c-73.9,0-133.9-59.9-133.9-133.9s59.9-133.9,133.9-133.9
	c73.9,0,133.9,59.9,133.9,133.9S835.6,824.3,761.7,824.3z"/>
<g class="st0">
	<g class="st1">
		<path d="M545.9,1009.7c32.5,0,64.9,0,97.4,0c64.1,0,128.2,0,192.3,0c45.7,0,91.4,0,137.2,0c2.7,0,5.4,0,8.1,0
			c16.3,0,30.1-13.4,30.2-29.8c0.1-16.3-13.4-30.2-29.8-30.2c-32.5,0-64.9,0-97.4,0c-64.1,0-128.2,0-192.3,0c-45.7,0-91.4,0-137.2,0
			c-2.7,0-5.4,0-8.1,0c-16.3,0-30.1,13.4-30.2,29.8C516,995.7,529.6,1009.7,545.9,1009.7L545.9,1009.7z"/>
	</g>
</g>
<path d="M161.3,171.5l68.3,97.2l-160,35.1l-13.8-62.8c-5.4-24.4,11.4-48.8,37.5-54.5L161.3,171.5z"/>
<polygon points="409,117.1 477.3,214.2 334.5,245.6 266.3,148.4 "/>
<polygon points="656.8,62.7 725.1,159.9 582.3,191.2 514,94 "/>
<path d="M932.6,48.5l13.8,62.8l-116.2,25.5l-68.3-97.2l113.8-25C901.7,9,927.2,24.1,932.6,48.5z"/>
<polygon points="70,332 234.3,332 188.4,441 70,441 "/>
<polygon points="342.8,332 490.3,332 444.4,441 296.9,441 "/>
<polygon points="598.8,332 746.4,332 700.4,441 552.9,441 "/>
<polygon points="974,332 974,441 808.9,441 854.8,332 "/>
<path d="M69,473v422.7c0,64.8,52.6,117.3,117.4,117.3h669.8C921,1013,974,960.6,974,895.7V473H69z M675.4,768.7L410.8,920.3
	c-52.4,27.6-53.8-23.4-53.8-23.4V591c1-53.8,51-26.2,51-26.2l264.5,157.1C702.9,743.9,675.4,768.7,675.4,768.7z"/>
<path class="st0" d="M708.7,364.8c0.8-89.6-71.2-162.8-160.8-163.5l-357-3c-89.6-0.8-162.8,71.2-163.5,160.8l-2.6,302.8
	C24,751.5,96,824.7,185.5,825.4l357,3c89.6,0.8,162.8-71.2,163.5-160.8L708.7,364.8z M534,537L308.2,664.2
	c-44.8,23.1-45.1-20.3-45.1-20.3l2.2-260.4c1.7-45.8,43.1-21.9,43.1-21.9l223.8,135.6C557.9,516.1,534,537,534,537z"/>
<path class="st0" d="M745.6,646.7l182.9,108.9c69.7,37.4,72.1-30.7,72.1-30.7l3.5-409.1c-0.7-71.9-67.9-35.6-67.9-35.6L748,392
	L745.6,646.7z"/>
<circle class="st2" cx="198.3" cy="248.3" r="132"/>
<circle class="st2" cx="540.3" cy="248.3" r="132"/>
<path class="st0" d="M34.8,789.3c-0.1,6.6,0.2,13.1,1.2,19.4V643.5L34.8,789.3z"/>
<path class="st0" d="M741.2,794.3L923,899.8c69.2,36.2,70.9-31.1,70.9-31.1l-1-403.9c-1.5-71-67.4-34.4-67.4-34.4L740.8,542.8
	L741.2,794.3z"/>
<path class="st0" d="M702,517c0-51.9-42.1-94-94-94H130c-51.9,0-94,42.1-94,94v297c0,51.9,42.1,94,94,94h478c51.9,0,94-42.1,94-94
	V517z M508.4,685.6L322,790.6c-37,19-37.3-16.8-37.3-16.8l1.8-215c1.4-37.8,35.6-18.1,35.6-18.1l184.8,112
	C528.1,668.3,508.4,685.6,508.4,685.6z"/>
<path class="st2" d="M974,864.3c0,52.3-42.4,94.7-94.7,94.7H148.7C96.4,959,54,916.6,54,864.3V365.7c0-52.3,42.4-94.7,94.7-94.7
	h730.6c52.3,0,94.7,42.4,94.7,94.7V864.3z"/>
<path class="st0" d="M690.1,641.7L414.9,799.4C360.4,828.1,359,775,359,775V456.8c1-55.9,53-27.2,53-27.2l275.2,163.4
	C718.7,615.9,690.1,641.7,690.1,641.7z"/>
<path class="st3" d="M182.7,218.7c0-37.7,30.7-68.7,68.5-68.7h527.2c37.7,0,68.3,30.7,68.3,68.4"/>
<path class="st4" d="M337.9,103.7c0-20.1,16.4-36.7,36.5-36.7h280.8c20.1,0,36.4,16.4,36.4,36.5"/>
<path class="st0" d="M553.5,366H294V253.1c0-34.9-27.9-63.1-62.9-63.1H78.6C43.7,190,15,218.2,15,253.1V730c0,59,48.2,107,107.2,107
	h431.3c59,0,106.5-48,106.5-107V472.7C660,413.7,612.5,366,553.5,366z M534,697.3c0,16.9-13.7,30.7-30.7,30.7H173.7
	c-16.9,0-30.7-13.7-30.7-30.7V505.7c0-16.9,13.7-30.7,30.7-30.7h329.7c16.9,0,30.7,13.7,30.7,30.7V697.3z"/>
<path class="st0" d="M838,253.1v4.4c0,34.9-27.7,63.5-62.6,63.5H457v-38H328v-53h129v-40h318.4C810.3,190,838,218.2,838,253.1z"/>
<path class="st0" d="M1013.5,780.6c0,0-1.5,61.7-64.9,28.5L782,712.4V712h-90V482h89v-0.2l169.6-103.1c0,0,60.5-33.5,61.9,31.6
	L1013.5,780.6z"/>
</svg>
